<?xml version="1.0" encoding="UTF-8" standalone="no"?>
<!-- Created with Inkscape (http://www.inkscape.org/) -->

<svg
   version="1.1"
   id="svg1"
   width="346.43729"
   height="444.92746"
   viewBox="0 0 346.43729 444.92746"
   sodipodi:docname="Deer28c.svg"
   inkscape:version="1.3.2 (091e20ef0f, 2023-11-25)"
   xmlns:inkscape="http://www.inkscape.org/namespaces/inkscape"
   xmlns:sodipodi="http://sodipodi.sourceforge.net/DTD/sodipodi-0.dtd"
   xmlns="http://www.w3.org/2000/svg"
   xmlns:svg="http://www.w3.org/2000/svg">
  <defs
     id="defs1" />
  <sodipodi:namedview
     id="namedview1"
     pagecolor="#ffffff"
     bordercolor="#000000"
     borderopacity="0.25"
     inkscape:showpageshadow="2"
     inkscape:pageopacity="0.0"
     inkscape:pagecheckerboard="0"
     inkscape:deskcolor="#d1d1d1"
     showgrid="false"
     inkscape:zoom="1.3050131"
     inkscape:cx="170.11323"
     inkscape:cy="211.10899"
     inkscape:window-width="1920"
     inkscape:window-height="1011"
     inkscape:window-x="0"
     inkscape:window-y="0"
     inkscape:window-maximized="1"
     inkscape:current-layer="layer1" />
  <g
     inkscape:groupmode="layer"
     id="layer1"
     inkscape:label="Layer 1"
     transform="translate(-33.07712,-38.666666)">
    <path
       style="display:inline;fill:#784421"
       d="m 338.66666,482.10912 c 0,-1.04749 -1.543,-3.73828 -3.42889,-5.97953 -4.01221,-4.76824 -3.83752,-5.18984 5.81354,-14.03109 6.11305,-5.6001 7.04471,-7.07396 6.32119,-10 -0.46672,-1.88751 -0.80694,-5.08184 -0.75604,-7.09851 0.0509,-2.01667 -0.36697,-3.67153 -0.92862,-3.67747 -0.56165,-0.006 -1.10499,-3.6147 -1.20741,-8.01947 -0.10243,-4.40476 -0.77424,-8.7499 -1.49291,-9.65586 -0.71867,-0.90596 -2.07569,-4.0472 -3.0156,-6.98053 -1.1825,-3.69044 -5.85668,-9.6523 -15.17376,-19.35395 -7.40566,-7.71133 -14.15622,-15.21133 -15.00124,-16.66666 -1.44245,-2.48423 -1.67879,-2.50873 -3.86454,-0.40056 -2.08048,2.00662 -2.14471,2.90062 -0.60386,8.40399 1.94619,6.95114 3.46913,4.43445 -14.13018,23.35051 -9.29991,9.99573 -15.76427,20.36596 -16.03641,25.7259 -0.10405,2.04925 -1.103,4.74925 -2.21989,6 -1.11689,1.25076 -2.4493,5.8741 -2.9609,10.2741 -1.1703,10.06503 -3.39522,13.64418 -9.15317,14.72438 -4.03572,0.7571 -4.61666,1.41886 -5.36747,6.11417 -0.99794,6.24074 -3.41952,7.51558 -13.31299,7.00861 -9.34246,-0.47873 -17.3359,-3.28359 -17.91405,-6.28596 -0.76673,-3.98172 2.41509,-9.96788 10.65967,-20.05468 4.27365,-5.22859 7.771,-10.23541 7.7719,-11.12627 9e-4,-0.89087 1.20163,-2.26198 2.6683,-3.04692 1.46666,-0.78493 2.66666,-2.25604 2.66666,-3.26913 0,-1.01309 0.54217,-2.04198 1.20482,-2.28642 1.69342,-0.62469 18.72388,-32.26544 18.99487,-35.29041 0.81819,-9.13317 -0.28891,-12.53871 -6.11115,-18.79841 -7.55296,-8.12045 -12.36624,-15.22416 -16.27686,-24.02229 -1.71126,-3.85 -3.96385,-7 -5.00577,-7 -1.04191,0 -10.40457,3 -20.80591,6.66667 -17.28324,6.09266 -19.93787,6.66666 -30.83192,6.66666 -7.5796,0 -13.66345,-0.72829 -16.70706,-2 -7.94394,-3.31919 -9.79064,-2.75496 -9.81892,3 -0.0135,2.75 -0.94788,10.1 -2.07637,16.33334 -1.1285,6.23333 -2.58147,14.45555 -3.22882,18.2716 -0.64736,3.81605 -1.89406,8.27809 -2.77045,9.91565 -1.94361,3.63167 -0.87573,28.70347 1.31591,30.89511 0.79804,0.79803 1.45097,3.58512 1.45097,6.19353 0,3.7154 -1.01073,5.67019 -4.66667,9.02548 -4.16268,3.82037 -4.66666,5.01681 -4.66666,11.07842 0,10.40805 -0.98465,11.40639 -11.51708,11.6772 -4.9658,0.12768 -11.45592,-0.46618 -14.42249,-1.31969 -2.96657,-0.85352 -5.79377,-1.59357 -6.28266,-1.64458 -2.27119,-0.23693 -2.66419,-2.34325 -1.12882,-6.04997 0.92101,-2.22352 2.23299,-4.04276 2.9155,-4.04276 0.68251,0 1.86842,-1.8 2.63534,-4 0.76692,-2.2 1.94714,-4 2.62271,-4 0.67557,0 0.85183,-1.5 0.39169,-3.33333 -0.51549,-2.05387 -0.26935,-3.33333 0.64126,-3.33333 0.81284,0 1.47788,-1.72443 1.47788,-3.83207 0,-2.10763 1.65,-6.75763 3.66667,-10.33333 3.51458,-6.23161 3.65888,-7.22022 3.47896,-23.8346 -0.10324,-9.53333 -1.14292,-22.73333 -2.31041,-29.33333 -1.1675,-6.6 -2.28303,-13.72114 -2.47897,-15.82475 l -0.35625,-3.82474 -10.66667,-0.22294 c -9.42122,-0.19692 -11.56182,-0.7382 -18.333287,-4.63585 -4.216644,-2.42709 -8.002054,-4.95563 -8.412023,-5.61898 -1.386318,-2.24311 -8.552456,-1.24164 -11.385177,1.59108 -2.038664,2.03867 -2.572559,3.75605 -1.968887,6.33333 0.455549,1.9449 1.465043,8.33618 2.24332,14.20285 0.778278,5.86666 2.584939,13.33964 4.014803,16.60662 1.667787,3.81059 2.302027,7.29549 1.769236,9.72128 -1.15583,5.26246 1.315283,7.66808 7.901946,7.69251 8.315319,0.0308 9.290609,1.15508 8.567429,9.87572 -0.40624,4.89875 -1.648668,8.90627 -3.564534,11.49762 -1.617515,2.18781 -2.76661,5.01922 -2.553545,6.29204 0.269702,1.61116 -0.625264,2.42735 -2.945943,2.68666 -3.35927,0.37535 -4.435433,-0.45851 -22.006658,-17.05188 -9.094958,-8.58881 -11.330501,-15.32321 -12.731848,-38.35372 -1.185822,-19.48844 -2.660493,-29.02666 -6.097128,-39.43641 -1.705753,-5.16682 -1.816349,-7.06652 -0.549233,-9.43415 2.68553,-5.01796 11.651875,-9.86713 19.865513,-10.74365 4.135645,-0.44134 10.413086,-1.13854 13.949869,-1.54935 l 6.430514,-0.74693 -0.856879,-10.86151 c -0.471284,-5.97384 -0.819327,-16.51904 -0.77343,-23.43379 0.05948,-8.96031 -0.450698,-13.17397 -1.775781,-14.66666 -2.035742,-2.29324 -3.583983,-12.27205 -3.847929,-24.8009 -0.118977,-5.64756 0.509394,-9.00891 2.111807,-11.29667 3.212243,-4.58612 2.85381,-7.56402 -1.027698,-8.53822 -1.819884,-0.45676 -5.418068,-2.68237 -7.995963,-4.94579 -4.027866,-3.53651 -5.484643,-4.03375 -10.357786,-3.53538 -3.118887,0.31896 -8.510757,1.40131 -11.981935,2.40521 -6.224676,1.80024 -6.366395,1.77242 -10.333333,-2.02814 -2.212156,-2.11938 -4.022101,-4.42236 -4.022101,-5.11774 0,-0.69537 -1.5,-2.65447 -3.333333,-4.35354 -4.759433,-4.4109 -4.792256,-15.21219 -0.06061,-19.94384 1.8,-1.8 4.666496,-3.27272 6.369991,-3.27272 1.703496,0 4.280768,-0.79065 5.727273,-1.757 1.446504,-0.96635 5.441393,-2.80123 8.877529,-4.07751 3.436137,-1.27628 8.478252,-4.09327 11.204701,-6.25998 2.726449,-2.1667 7.278362,-4.31064 10.115363,-4.76429 2.837,-0.45366 5.451447,-1.29934 5.809881,-1.8793 0.358434,-0.57996 -2.55917,-2.57345 -6.483565,-4.42999 -8.900602,-4.21066 -19.838487,-13.91478 -22.859436,-20.28096 -4.238294,-8.93154 0.532921,-8.69701 14.632201,0.71925 4.679775,3.12541 11.333333,5.04683 11.333333,3.27284 0,-0.34349 -1.959447,-2.34495 -4.354328,-4.44768 -2.480776,-2.17815 -5.408703,-6.75527 -6.804804,-10.6377 -4.459577,-12.40167 -0.115263,-14.436 8.751825,-4.09826 5.550571,6.47116 14.287684,13.30724 17.007821,13.30724 0.784624,0 1.279492,-4.76613 1.214273,-11.69481 -0.09091,-9.6584 0.474456,-13.08295 3.246836,-19.66667 4.62453,-10.98212 7.02546,-11.09268 7.96694,-0.36684 0.74322,8.46717 4.40354,17.82392 8.20773,20.98112 6.02931,5.00388 11.70803,-2.62663 19.97966,-26.84666 4.25464,-12.457974 4.72838,-15.070278 3.74789,-20.666666 -1.91834,-10.949297 5.11961,-37.739468 9.9144,-37.739468 1.04093,0 1.93446,3.775009 2.54197,10.739408 0.63616,7.292733 1.70941,11.678874 3.34412,13.666666 2.2455,2.730499 2.65273,2.792826 6.0585,0.927259 2.00816,-1.1 7.44598,-6.5 12.08405,-12 13.8531,-16.427526 18.53762,-21.333333 20.37105,-21.333333 2.88228,0 0.85109,8.98844 -4.51957,19.999999 C 185.00976,69.08624 181.7941,73.485525 169,87.521746 c -4.21667,4.626043 -7.66667,9.34144 -7.66667,10.47866 0,3.282674 -19.63613,42.590324 -22.62905,45.298884 -3.53139,3.19586 -3.44742,6.03404 0.17853,6.03404 7.31114,0 31.36082,-8.7182 33.12067,-12.00651 0.68471,-1.2794 1.63844,-4.95132 2.1194,-8.15983 0.82859,-5.52755 1.72411,-8.12399 6.62234,-19.2007 2.33046,-5.27004 19.04856,-23.299625 21.60479,-23.299625 2.00968,0 2.19386,5.589463 0.24828,7.535041 -4.01938,4.019377 -7.1995,31.111964 -3.89187,33.156194 1.7433,1.07742 13.88639,-6.9879 19.80847,-13.15659 4.41757,-4.60154 4.49496,-4.87903 3.59047,-12.87375 -0.54661,-4.831311 -0.29416,-11.268204 0.61765,-15.749197 1.64271,-8.072926 8.70749,-21.990419 10.80742,-21.290441 0.69261,0.230871 1.3858,5.273365 1.5404,11.205542 0.402,15.424286 3.38495,17.935545 15.02473,12.64889 5.16645,-2.346539 10.90886,-6.945687 27.09013,-21.696728 3.95213,-3.602813 8.26572,-7.128579 9.58575,-7.835037 3.93869,-2.107925 4.36146,0.948518 0.79048,5.714896 -1.78883,2.387649 -3.67091,5.717704 -4.1824,7.400122 -0.51148,1.682418 -8.98112,11.456849 -18.82142,21.720958 -9.84029,10.264105 -17.89144,19.179745 -17.89144,19.812535 0,2.71853 -23.98392,21.97672 -32.62905,26.1999 -5.11264,2.49755 -9.97262,4.541 -10.79995,4.541 -0.82733,0 -3.84425,1.67524 -6.70428,3.72276 -17.04248,12.20087 -32.37011,17.62723 -51.52759,18.24202 -11.86058,0.38063 -12.37489,3.25424 -0.82379,4.6028 0.46676,0.0545 1.12233,1.96369 1.45681,4.24265 0.42872,2.92103 -0.13795,4.83867 -1.92062,6.49947 -2.3345,2.17492 -2.36228,2.5224 -0.36158,4.5231 1.19196,1.19196 2.71291,2.1672 3.37989,2.1672 0.66698,0 1.59314,1.51582 2.05813,3.3685 0.46499,1.85268 1.97642,3.97379 3.35874,4.71358 1.38231,0.73979 2.51329,2.47396 2.51329,3.85372 0,1.37975 0.45,2.70864 1,2.95308 1.54192,0.6853 7,8.82359 7,10.43737 0,2.41055 4.20116,8.00708 6.0107,8.00708 1.90101,0 3.32264,2.89905 3.32264,6.77572 0,2.55898 4.35298,7.89095 6.44211,7.89095 1.14751,0 8.78478,11.31086 9.74815,14.43708 0.65073,2.11167 11.56237,6.10692 24.4764,8.96195 8.6698,1.91671 16.7465,2.57307 72.66667,5.90535 30.78583,1.83452 36.76328,3.84648 53.72811,18.0844 12.38046,10.39044 14.32332,11.22313 28.52466,12.22533 10.67575,0.7534 10.97457,0.86802 11.77601,4.51695 0.86537,3.94001 -2.09063,11.82051 -5.49316,14.64435 -1.03697,0.86061 -3.77443,1.95109 -6.08326,2.4233 -4.96513,1.01548 -4.5049,0.19096 -12.35526,22.13462 -3.41055,9.53333 -7.07763,19.30369 -8.14906,21.7119 -1.07142,2.40821 -1.94805,6.96522 -1.94805,10.12668 0,6.46777 2.32585,9.39514 8.66667,10.90805 6.88508,1.64278 7.33333,2.62931 7.33333,16.1395 0,20.15133 5.17672,39.58081 11.59355,43.51345 0.95688,0.58644 1.73979,1.86297 1.73979,2.83674 0,0.97377 0.9,2.51742 2,3.43034 3.42331,2.8411 2.43692,8.72864 -2.1023,12.54814 -2.25627,1.89852 -4.61309,3.45186 -5.23739,3.45186 -0.6243,0 -1.55169,3.33427 -2.06085,7.40949 -1.18303,9.46866 -3.3876,10.95491 -17.63165,11.8867 -8.95078,0.58552 -10.96781,0.36722 -10.96781,-1.18706 z"
       id="path4" />
    <path
       id="path3"
       style="display:inline;fill:#ffcc00"
       d="m 191.24509,45.246744 c -1.04585,0.0086 -3.03638,1.904621 -5.0625,5.085938 -1.75143,2.749997 -6.93385,9.072726 -11.51563,14.050781 -15.8467,17.217276 -23.19849,17.252325 -24.96679,0.11914 -1.38737,-13.442246 -4.36719,-6.333854 -4.36719,10.417969 0,5.089872 0.53042,10.264878 1.17773,11.5 2.81101,5.363649 -16.01699,48.516918 -22.7832,52.218748 -3.29006,1.8 -3.91349,1.74232 -7.13281,-0.66601 -4.13001,-3.08959 -9.20406,-11.64361 -10.55469,-17.79297 -0.52626,-2.39604 -1.63741,-4.08687 -2.49414,-3.79492 -1.89463,0.64564 -2.20348,14.56772 -0.35156,15.8457 0.81003,0.55899 0.64191,1.69233 -0.44336,3 -1.60538,1.93436 -1.0435,2.69385 1.6543,2.23633 2.04411,-0.34667 4.91654,3.6794 4.11523,5.76758 -0.52695,1.37321 -0.0658,2.09765 1.33594,2.09765 1.17845,0 2.14453,0.55677 2.14453,1.23633 0,1.29061 2.90283,2.346 7.17578,2.60937 1.38011,0.0851 4.50157,-1.07654 6.9375,-2.58203 2.43593,-1.50548 6.46313,-5.55549 8.94922,-9 4.57548,-6.33937 18.26953,-33.49368 18.26953,-36.22656 0,-2.805619 9.63843,-19.332239 12.4043,-21.26953 1.5222,-1.066194 3.85378,-3.025657 5.18164,-4.353516 1.32786,-1.327858 3.01471,-2.414062 3.74804,-2.414062 0.73334,0 1.33399,-1.057 1.33399,-2.34961 0,-1.292609 1.44303,-3.435545 3.20898,-4.761719 1.76595,-1.326174 3.9404,-4.168528 4.83008,-6.316406 0.88968,-2.147878 2.10075,-3.904297 2.69141,-3.904297 1.10775,0 5.26953,-7.533843 5.26953,-9.539062 0,-0.833168 -0.28048,-1.218765 -0.75586,-1.214844 z m 88.30273,24.236328 c -0.58957,-0.09344 -1.89005,0.975886 -4.63086,3.517578 -2.17464,2.016664 -4.76915,4.294767 -5.76757,5.0625 -0.99843,0.767735 -5.41642,4.217548 -9.81641,7.666016 -4.4,3.448467 -8.59869,6.282061 -9.33203,6.298828 -0.73333,0.01677 -2.83464,1.204619 -4.66797,2.638672 -1.83334,1.434053 -4.23203,2.602441 -5.33203,2.595703 -3.62138,-0.02219 -6.87269,-6.471499 -7.89649,-15.667969 l -0.99414,-8.927734 -2.38086,5.333984 c -2.97017,6.653121 -3.34268,19.461604 -0.79101,27.16602 l 1.93164,5.83398 -4.60156,3.93945 c -2.53106,2.16595 -5.86899,5.07245 -7.41797,6.46094 -1.54898,1.38849 -4.24898,3.15357 -6,3.92188 -1.75102,0.76832 -5.8836,3.13799 -9.1836,5.26562 -6.86699,4.42741 -10.03422,4.98432 -11.1914,1.96875 -1.72176,-4.48681 -0.66746,-14.50627 2.52539,-24.01758 1.83333,-5.4614 3.33203,-10.21713 3.33203,-10.568357 0,-1.771179 -4.19554,-0.320804 -4.9043,1.695313 -0.45115,1.283334 -2.18837,3.832684 -3.86133,5.666014 -3.71912,4.07565 -8.96602,17.0378 -7.95898,19.66211 0.40353,1.05156 0.33453,2.55792 -0.15234,3.3457 -0.48688,0.78778 -1.02122,3.16166 -1.1875,5.27539 -0.67066,8.52539 -11.53077,14.35609 -35.44922,19.03321 -19.24963,3.76416 -28.22299,3.13923 -41.15235,-2.86719 -4.033321,-1.87372 -9.327418,-4.33074 -11.763668,-5.45898 -2.43625,-1.12825 -6.936255,-4.9619 -10,-8.51954 -5.590673,-6.49191 -7.570313,-7.7844 -7.570313,-4.9414 0,2.1472 9.220415,15.80469 10.669922,15.80469 0.656351,0 2.675924,1.37505 4.488282,3.05468 1.812358,1.67964 6.307429,3.82566 9.990234,4.76953 3.682803,0.94387 7.405743,2.57013 8.271483,3.61329 0.86574,1.04314 2.39995,1.89648 3.41016,1.89648 1.20287,0 1.83789,1.57724 1.83789,4.57031 v 4.57032 l 7.54101,-0.7793 c 4.71873,-0.48702 8.46158,-1.6979 10,-3.23633 1.69012,-1.69012 4.43739,-2.4665 8.79102,-2.48242 7.60251,-0.0278 24.29225,-3.40162 26.18359,-5.29297 0.74296,-0.74296 2.72935,-1.34961 4.41602,-1.34961 1.89563,0 3.06836,-0.79802 3.06836,-2.08984 0,-1.45382 0.77832,-1.84238 2.55859,-1.27735 1.84787,0.5865 2.80712,0.0276 3.45313,-2.00781 0.554,-1.74551 1.62908,-2.53674 2.82422,-2.07812 1.0615,0.40733 2.24654,-0.0833 2.63281,-1.08985 0.40326,-1.05089 1.80145,-1.54178 3.2832,-1.1543 1.76597,0.46181 2.58008,-0.006 2.58008,-1.48046 0,-1.25552 1.09731,-2.15625 2.62695,-2.15625 1.44436,0 4.76177,-1.19936 7.37305,-2.66602 2.61128,-1.46667 5.62934,-2.66797 6.70703,-2.66797 1.07769,0 1.96094,-0.5987 1.96094,-1.33203 0,-0.73334 1.19935,-1.33398 2.66601,-1.33398 1.48148,0 2.66602,-0.88889 2.66602,-2 0,-1.1 0.94332,-2 2.0957,-2 1.15238,0 2.93096,-0.74936 3.95313,-1.66602 3.78803,-3.39706 5.34222,-4.49 7.61914,-5.35937 1.28334,-0.49001 2.33203,-1.71721 2.33203,-2.72657 0,-1.00936 1.20131,-2.92073 2.66797,-4.24804 2.39812,-2.17026 2.66601,-2.19145 2.66601,-0.20704 0,1.21366 0.60066,2.20704 1.33399,2.20704 0.73334,0 1.33203,-1.80001 1.33203,-4 0,-2.2 0.60065,-4 1.33398,-4 0.73333,0 1.33399,0.63549 1.33399,1.41211 0,0.7766 0.59869,1.04112 1.33203,0.58789 0.73333,-0.45322 1.33398,-2.32849 1.33398,-4.16797 0,-2.73772 0.48314,-3.19087 2.66602,-2.49805 2.06648,0.65587 2.66797,0.23954 2.66797,-1.84961 0,-2.87971 5.96524,-9.739842 7.30469,-8.40039 0.4402,0.440197 1.1472,-0.524604 1.57031,-2.142578 0.42311,-1.617973 1.51771,-2.941406 2.43359,-2.941406 2.11017,0 20.69141,-17.805982 20.69141,-19.828125 0,-0.825843 -0.0994,-1.299406 -0.45313,-1.355469 z M 59.135714,143.95963 c -1.378253,0.0629 -0.199958,2.1909 3.792969,6.31055 2.343852,2.41825 5.363158,4.39649 6.708984,4.39649 1.345825,0 2.803906,0.93403 3.242187,2.07617 0.438282,1.14215 1.619632,1.7608 2.625,1.375 1.094232,-0.4199 1.870582,0.21812 1.933594,1.58984 0.06389,1.39093 0.36913,1.63666 0.777344,0.625 1.079544,-2.67539 4.451172,-1.91797 4.451172,1 0,1.46667 0.600652,2.66797 1.333984,2.66797 0.733332,0 1.332031,-0.60064 1.332031,-1.33398 0,-2.4448 2.905676,-1.37191 3.613282,1.33398 0.983309,3.76018 3.054687,3.31912 3.054687,-0.65039 0,-2.4166 -1.44185,-4.22505 -5.308594,-6.66602 -2.918757,-1.84252 -6.546035,-3.35156 -8.0625,-3.35156 -1.516464,0 -6.040392,-2.09935 -10.052734,-4.66601 -5.018804,-3.21049 -8.2253,-4.76251 -9.441406,-4.70704 z m 36.865234,17.37305 c -0.733333,0 -1.333984,1.2013 -1.333984,2.66797 0,1.46666 0.600651,2.66602 1.333984,2.66602 0.733332,0 1.332031,-1.19936 1.332031,-2.66602 0,-1.46667 -0.598699,-2.66797 -1.332031,-2.66797 z m 5.244142,1.2207 c -0.92213,0.0141 -1.354086,1.84042 -0.53711,3.72266 0.99157,2.28448 1.06472,2.28242 1.61719,-0.0469 0.318,-1.34073 0.22446,-2.79117 -0.20703,-3.22266 -0.31862,-0.31862 -0.61485,-0.45706 -0.87305,-0.45313 z" />
    <path
       style="fill:#ffff00"
       d="m 94.681412,189.30577 c 1.805076,-3.37281 0.969529,-4.76965 -3.528342,-5.89854 -4.077062,-1.02328 -7.604074,1.32508 -4.042695,2.69171 1.222626,0.46916 2.222956,1.98883 2.222956,3.37704 0,3.3437 3.52758,3.23143 5.348081,-0.17021 z"
       id="path2" />
    <path
       style="display:inline;fill:#000000"
       d="m 338.66666,482.10912 c 0,-1.04749 -1.543,-3.73828 -3.42889,-5.97953 -4.01221,-4.76824 -3.83752,-5.18984 5.81354,-14.03109 6.11305,-5.6001 7.04471,-7.07396 6.32119,-10 -0.46672,-1.88751 -0.80694,-5.08184 -0.75604,-7.09851 0.0509,-2.01667 -0.36697,-3.67153 -0.92862,-3.67747 -0.56165,-0.006 -1.10499,-3.6147 -1.20741,-8.01947 -0.10243,-4.40476 -0.77424,-8.7499 -1.49291,-9.65586 -0.71867,-0.90596 -2.07569,-4.0472 -3.0156,-6.98053 -1.1825,-3.69044 -5.85668,-9.6523 -15.17376,-19.35395 -7.40566,-7.71133 -14.15622,-15.21133 -15.00124,-16.66666 -1.44245,-2.48423 -1.67879,-2.50873 -3.86454,-0.40056 -2.08048,2.00662 -2.14471,2.90062 -0.60386,8.40399 1.94619,6.95114 3.46913,4.43445 -14.13018,23.35051 -9.29991,9.99573 -15.76427,20.36596 -16.03641,25.7259 -0.10405,2.04925 -1.103,4.74925 -2.21989,6 -1.11689,1.25076 -2.4493,5.8741 -2.9609,10.2741 -1.1703,10.06503 -3.39522,13.64418 -9.15317,14.72438 -4.03572,0.7571 -4.61666,1.41886 -5.36747,6.11417 -0.99794,6.24074 -3.41952,7.51558 -13.31299,7.00861 -9.34246,-0.47873 -17.3359,-3.28359 -17.91405,-6.28596 -0.76673,-3.98172 2.41509,-9.96788 10.65967,-20.05468 4.27365,-5.22859 7.771,-10.23541 7.7719,-11.12627 9e-4,-0.89087 1.20163,-2.26198 2.6683,-3.04692 1.46666,-0.78493 2.66666,-2.25604 2.66666,-3.26913 0,-1.01309 0.54217,-2.04198 1.20482,-2.28642 1.69342,-0.62469 18.72388,-32.26544 18.99487,-35.29041 0.81819,-9.13317 -0.28891,-12.53871 -6.11115,-18.79841 -7.55296,-8.12045 -12.36624,-15.22416 -16.27686,-24.02229 -1.71126,-3.85 -3.96385,-7 -5.00577,-7 -1.04191,0 -10.40457,3 -20.80591,6.66667 -17.28324,6.09266 -19.93787,6.66666 -30.83192,6.66666 -7.5796,0 -13.66345,-0.72829 -16.70706,-2 -7.94394,-3.31919 -9.79064,-2.75496 -9.81892,3 -0.0135,2.75 -0.94788,10.1 -2.07637,16.33334 -1.1285,6.23333 -2.58147,14.45555 -3.22882,18.2716 -0.64736,3.81605 -1.89406,8.27809 -2.77045,9.91565 -1.94361,3.63167 -0.87573,28.70347 1.31591,30.89511 0.79804,0.79803 1.45097,3.58512 1.45097,6.19353 0,3.7154 -1.01073,5.67019 -4.66667,9.02548 -4.16268,3.82037 -4.66666,5.01681 -4.66666,11.07842 0,10.40805 -0.98465,11.40639 -11.51708,11.6772 -4.9658,0.12768 -11.45592,-0.46618 -14.42249,-1.31969 -2.96657,-0.85352 -5.79377,-1.59357 -6.28266,-1.64458 -2.27119,-0.23693 -2.66419,-2.34325 -1.12882,-6.04997 0.92101,-2.22352 2.23299,-4.04276 2.9155,-4.04276 0.68251,0 1.86842,-1.8 2.63534,-4 0.76692,-2.2 1.94714,-4 2.62271,-4 0.67557,0 0.85183,-1.5 0.39169,-3.33333 -0.51549,-2.05387 -0.26935,-3.33333 0.64126,-3.33333 0.81284,0 1.47788,-1.72443 1.47788,-3.83207 0,-2.10763 1.65,-6.75763 3.66667,-10.33333 3.51458,-6.23161 3.65888,-7.22022 3.47896,-23.8346 -0.10324,-9.53333 -1.14292,-22.73333 -2.31041,-29.33333 -1.1675,-6.6 -2.28303,-13.72114 -2.47897,-15.82475 l -0.35625,-3.82474 -10.66667,-0.22294 c -9.42122,-0.19692 -11.56182,-0.7382 -18.333287,-4.63585 -4.216644,-2.42709 -8.002054,-4.95563 -8.412023,-5.61898 -1.386318,-2.24311 -8.552456,-1.24164 -11.385177,1.59108 -2.038664,2.03867 -2.572559,3.75605 -1.968887,6.33333 0.455549,1.9449 1.465043,8.33618 2.24332,14.20285 0.778278,5.86666 2.584939,13.33964 4.014803,16.60662 1.667787,3.81059 2.302027,7.29549 1.769236,9.72128 -1.15583,5.26246 1.315283,7.66808 7.901946,7.69251 8.315319,0.0308 9.290609,1.15508 8.567429,9.87572 -0.40624,4.89875 -1.648668,8.90627 -3.564534,11.49762 -1.617515,2.18781 -2.76661,5.01922 -2.553545,6.29204 0.269702,1.61116 -0.625264,2.42735 -2.945943,2.68666 -3.35927,0.37535 -4.435433,-0.45851 -22.006658,-17.05188 -9.094958,-8.58881 -11.330501,-15.32321 -12.731848,-38.35372 -1.185822,-19.48844 -2.660493,-29.02666 -6.097128,-39.43641 -1.705753,-5.16682 -1.816349,-7.06652 -0.549233,-9.43415 2.68553,-5.01796 11.651875,-9.86713 19.865513,-10.74365 4.135645,-0.44134 10.413086,-1.13854 13.949869,-1.54935 l 6.430514,-0.74693 -0.856879,-10.86151 c -0.471284,-5.97384 -0.819327,-16.51904 -0.77343,-23.43379 0.05948,-8.96031 -0.450698,-13.17397 -1.775781,-14.66666 -2.035742,-2.29324 -3.583983,-12.27205 -3.847929,-24.8009 -0.118977,-5.64756 0.509394,-9.00891 2.111807,-11.29667 3.212243,-4.58612 2.85381,-7.56402 -1.027698,-8.53822 -1.819884,-0.45676 -5.418068,-2.68237 -7.995963,-4.94579 -4.027866,-3.53651 -5.484643,-4.03375 -10.357786,-3.53538 -3.118887,0.31896 -8.510757,1.40131 -11.981935,2.40521 -6.224676,1.80024 -6.366395,1.77242 -10.333333,-2.02814 -2.212156,-2.11938 -4.022101,-4.42236 -4.022101,-5.11774 0,-0.69537 -1.5,-2.65447 -3.333333,-4.35354 -4.759433,-4.4109 -4.792256,-15.21219 -0.06061,-19.94384 1.8,-1.8 4.666496,-3.27272 6.369991,-3.27272 1.703496,0 4.280768,-0.79065 5.727273,-1.757 1.446504,-0.96635 5.441393,-2.80123 8.877529,-4.07751 3.436137,-1.27628 8.478252,-4.09327 11.204701,-6.25998 2.726449,-2.1667 7.278362,-4.31064 10.115363,-4.76429 2.837,-0.45366 5.451447,-1.29934 5.809881,-1.8793 0.358434,-0.57996 -2.55917,-2.57345 -6.483565,-4.42999 -8.900602,-4.21066 -19.838487,-13.91478 -22.859436,-20.28096 -4.238294,-8.93154 0.532921,-8.69701 14.632201,0.71925 4.679775,3.12541 11.333333,5.04683 11.333333,3.27284 0,-0.34349 -1.959447,-2.34495 -4.354328,-4.44768 -2.480776,-2.17815 -5.408703,-6.75527 -6.804804,-10.6377 -4.459577,-12.40167 -0.115263,-14.436 8.751825,-4.09826 5.550571,6.47116 14.287684,13.30724 17.007821,13.30724 0.784624,0 1.279492,-4.76613 1.214273,-11.69481 -0.09091,-9.6584 0.474456,-13.08295 3.246836,-19.66667 4.62453,-10.98212 7.02546,-11.09268 7.96694,-0.36684 0.74322,8.46717 4.40354,17.82392 8.20773,20.98112 6.02931,5.00388 11.70803,-2.62663 19.97966,-26.84666 4.25464,-12.457974 4.72838,-15.070278 3.74789,-20.666666 -1.91834,-10.949297 5.11961,-37.739468 9.9144,-37.739468 1.04093,0 1.93446,3.775009 2.54197,10.739408 0.63616,7.292733 1.70941,11.678874 3.34412,13.666666 2.2455,2.730499 2.65273,2.792826 6.0585,0.927259 2.00816,-1.1 7.44598,-6.5 12.08405,-12 13.8531,-16.427526 18.53762,-21.333333 20.37105,-21.333333 2.88228,0 0.85109,8.98844 -4.51957,19.999999 C 185.00976,69.08624 181.7941,73.485525 169,87.521746 c -4.21667,4.626043 -7.66667,9.34144 -7.66667,10.47866 0,3.282674 -19.63613,42.590324 -22.62905,45.298884 -3.53139,3.19586 -3.44742,6.03404 0.17853,6.03404 7.31114,0 31.36082,-8.7182 33.12067,-12.00651 0.68471,-1.2794 1.63844,-4.95132 2.1194,-8.15983 0.82859,-5.52755 1.72411,-8.12399 6.62234,-19.2007 2.33046,-5.27004 19.04856,-23.299625 21.60479,-23.299625 2.00968,0 2.19386,5.589463 0.24828,7.535041 -4.01938,4.019377 -7.1995,31.111964 -3.89187,33.156194 1.7433,1.07742 13.88639,-6.9879 19.80847,-13.15659 4.41757,-4.60154 4.49496,-4.87903 3.59047,-12.87375 -0.54661,-4.831311 -0.29416,-11.268204 0.61765,-15.749197 1.64271,-8.072926 8.70749,-21.990419 10.80742,-21.290441 0.69261,0.230871 1.3858,5.273365 1.5404,11.205542 0.402,15.424286 3.38495,17.935545 15.02473,12.64889 5.16645,-2.346539 10.90886,-6.945687 27.09013,-21.696728 3.95213,-3.602813 8.26572,-7.128579 9.58575,-7.835037 3.93869,-2.107925 4.36146,0.948518 0.79048,5.714896 -1.78883,2.387649 -3.67091,5.717704 -4.1824,7.400122 -0.51148,1.682418 -8.98112,11.456849 -18.82142,21.720958 -9.84029,10.264105 -17.89144,19.179745 -17.89144,19.812535 0,2.71853 -23.98392,21.97672 -32.62905,26.1999 -5.11264,2.49755 -9.97262,4.541 -10.79995,4.541 -0.82733,0 -3.84425,1.67524 -6.70428,3.72276 -17.04248,12.20087 -32.37011,17.62723 -51.52759,18.24202 -11.86058,0.38063 -12.37489,3.25424 -0.82379,4.6028 0.46676,0.0545 1.12233,1.96369 1.45681,4.24265 0.42872,2.92103 -0.13795,4.83867 -1.92062,6.49947 -2.3345,2.17492 -2.36228,2.5224 -0.36158,4.5231 1.19196,1.19196 2.71291,2.1672 3.37989,2.1672 0.66698,0 1.59314,1.51582 2.05813,3.3685 0.46499,1.85268 1.97642,3.97379 3.35874,4.71358 1.38231,0.73979 2.51329,2.47396 2.51329,3.85372 0,1.37975 0.45,2.70864 1,2.95308 1.54192,0.6853 7,8.82359 7,10.43737 0,2.41055 4.20116,8.00708 6.0107,8.00708 1.90101,0 3.32264,2.89905 3.32264,6.77572 0,2.55898 4.35298,7.89095 6.44211,7.89095 1.14751,0 8.78478,11.31086 9.74815,14.43708 0.65073,2.11167 11.56237,6.10692 24.4764,8.96195 8.6698,1.91671 16.7465,2.57307 72.66667,5.90535 30.78583,1.83452 36.76328,3.84648 53.72811,18.0844 12.38046,10.39044 14.32332,11.22313 28.52466,12.22533 10.67575,0.7534 10.97457,0.86802 11.77601,4.51695 0.86537,3.94001 -2.09063,11.82051 -5.49316,14.64435 -1.03697,0.86061 -3.77443,1.95109 -6.08326,2.4233 -4.96513,1.01548 -4.5049,0.19096 -12.35526,22.13462 -3.41055,9.53333 -7.07763,19.30369 -8.14906,21.7119 -1.07142,2.40821 -1.94805,6.96522 -1.94805,10.12668 0,6.46777 2.32585,9.39514 8.66667,10.90805 6.88508,1.64278 7.33333,2.62931 7.33333,16.1395 0,20.15133 5.17672,39.58081 11.59355,43.51345 0.95688,0.58644 1.73979,1.86297 1.73979,2.83674 0,0.97377 0.9,2.51742 2,3.43034 3.42331,2.8411 2.43692,8.72864 -2.1023,12.54814 -2.25627,1.89852 -4.61309,3.45186 -5.23739,3.45186 -0.6243,0 -1.55169,3.33427 -2.06085,7.40949 -1.18303,9.46866 -3.3876,10.95491 -17.63165,11.8867 -8.95078,0.58552 -10.96781,0.36722 -10.96781,-1.18706 z m 20.92222,-6.9787 c 1.27437,-1.94493 2.3382,-5.69493 2.36407,-8.33334 0.0401,-4.08762 0.6725,-5.07254 4.27607,-6.65956 5.6411,-2.48435 6.31484,-5.99564 2.35427,-12.26959 -1.78748,-2.83155 -3.24997,-5.64751 -3.24997,-6.25767 0,-0.61017 -1.2,-3.5931 -2.66666,-6.62875 -1.46667,-3.03566 -2.66667,-6.35617 -2.66667,-7.37893 0,-1.02275 -0.8605,-3.60174 -1.91221,-5.73107 -1.10786,-2.24299 -2.19934,-9.76052 -2.59479,-17.87152 -0.37541,-7.7 -0.71491,-14.11161 -0.75445,-14.24802 -0.0395,-0.13641 -2.41859,-1.56694 -5.28678,-3.17895 -2.86819,-1.61202 -6.54907,-4.73551 -8.17974,-6.9411 -2.8189,-3.81277 -2.88444,-4.46006 -1.33145,-13.15005 0.89836,-5.02694 2.18145,-9.4786 2.8513,-9.89259 0.66985,-0.414 0.85066,-2.21594 0.4018,-4.00433 -0.61167,-2.43712 -0.27891,-3.25162 1.32844,-3.25162 2.38234,0 2.88208,-2.05347 0.81121,-3.33334 -2.4692,-1.52605 -1.3594,-3.33333 2.04692,-3.33333 3.07053,0 3.23626,-0.26904 1.8088,-2.93627 -1.17074,-2.18753 -1.1827,-3.06585 -0.0469,-3.44444 0.83849,-0.2795 1.52453,-1.65818 1.52453,-3.06373 0,-1.40556 0.91143,-2.55556 2.0254,-2.55556 1.49464,0 1.80617,-0.87351 1.18879,-3.33333 -0.64398,-2.56582 -0.32031,-3.33334 1.4057,-3.33334 1.41218,0 2.07704,-0.85815 1.7959,-2.31802 -0.61932,-3.21585 -4.90589,-3.78543 -5.87406,-0.78052 -0.43095,1.33753 -1.28526,3.63188 -1.89847,5.09854 -0.61322,1.46667 -1.30881,3.36583 -1.54577,4.22037 -0.58486,2.10919 -14.27178,16.31631 -19.89001,20.64598 -7.89142,6.08149 -18.54116,17.35739 -18.53203,19.62164 0.0133,3.28662 3.70021,7.95761 13.82922,17.5202 14.84254,14.01255 23.37159,27.23437 25.61948,39.71562 0.48962,2.71857 1.54195,5.76094 2.33852,6.76081 1.87555,2.35427 1.99137,23.95978 0.13522,25.22575 -4.61186,3.14547 -12.54775,13.53553 -11.80894,15.46083 1.20231,3.13318 4.12125,2.65147 5.07708,-0.83787 1.2552,-4.58216 5.9977,-9.6696 7.55877,-8.10853 0.86891,0.86891 0.39621,2.49065 -1.38656,4.75708 -4.14519,5.26975 -3.53834,7.68479 1.93102,7.68479 3.54462,0 5.18137,-0.83245 6.95296,-3.53624 z m -111.85555,0.6029 c 0.88,-0.88 1.6,-3.59883 1.6,-6.04184 0,-4.49003 0.36742,-4.81772 7.04534,-6.28358 4.14666,-0.91022 5.31733,-3.17702 7.36298,-14.25709 1.58709,-8.59627 5.53063,-17.92301 11.08539,-26.21766 2.11179,-3.15343 3.83962,-5.99887 3.83962,-6.32319 0,-1.07175 5.88592,-7.54791 13.7546,-15.13393 6.91906,-6.6705 7.66679,-7.90704 6.93955,-11.47604 -2.1217,-10.41245 -1.444,-17.13369 2.28159,-22.62819 2.00332,-2.95449 3.65332,-6.3864 3.66666,-7.62645 0.0296,-2.74595 2.25883,-4.375 2.98907,-2.18426 0.78451,2.35351 3.70186,0.0105 3.70186,-2.97312 0,-1.87162 0.92268,-2.58798 3.33334,-2.58798 2.09812,0 3.33333,-0.75335 3.33333,-2.033 0,-1.11815 1.5,-2.6033 3.33333,-3.30033 1.83334,-0.69703 3.33334,-2.17511 3.33334,-3.28461 0,-1.29649 1.07038,-1.9038 2.99568,-1.69967 2.21146,0.23447 3.10836,-0.46775 3.42607,-2.68239 0.23671,-1.65 1.28865,-3 2.33765,-3 1.04899,0 1.90726,-0.96998 1.90726,-2.15551 0,-1.49906 0.81211,-1.94313 2.66667,-1.45815 2.19606,0.57428 2.66666,0.0409 2.66666,-3.02232 0,-2.59833 0.8039,-3.92989 2.66667,-4.41702 2.26573,-0.5925 2.66667,-1.81868 2.66667,-8.1555 0,-7.94852 1.16463,-9.01368 5.9215,-5.41576 4.49971,3.4034 12.41596,2.49193 16.84773,-1.93984 4.08318,-4.08318 5.05841,-7.86413 2.23077,-8.64869 -0.91667,-0.25433 -6.65657,-1.11876 -12.75535,-1.92094 -10.81643,-1.42271 -11.22357,-1.60923 -16.58299,-7.59728 -5.02416,-5.61347 -5.88219,-6.06599 -10.02725,-5.28837 -4.19383,0.78677 -4.46435,0.63428 -3.61609,-2.03833 0.87041,-2.74244 0.63145,-2.84049 -4.71948,-1.93646 -3.99269,0.67456 -5.36976,0.52094 -4.72223,-0.52679 0.50276,-0.81347 1.74328,-1.47904 2.75672,-1.47904 1.01344,0 2.18782,-0.55854 2.60973,-1.2412 1.52714,-2.47096 -1.43842,-2.4824 -6.63487,-0.0256 -6.4846,3.06583 -8.64152,3.21562 -8.64152,0.60013 0,-1.1 1.16459,-2 2.58797,-2 1.42339,0 2.93318,-0.55854 3.35509,-1.2412 1.52697,-2.4707 -1.88392,-2.76087 -7.24382,-0.61627 -6.03339,2.41409 -8.62747,1.59828 -4.60191,-1.44724 2.45693,-1.85878 2.41236,-1.94567 -1.01864,-1.98622 -1.97339,-0.0233 -3.95681,0.55437 -4.4076,1.28376 -0.45078,0.72939 -2.00552,1.96084 -3.45496,2.73656 -2.37512,1.27112 -2.55101,1.07433 -1.7812,-1.99283 l 0.85415,-3.40323 -17.14454,-0.0824 c -9.4295,-0.0453 -21.64454,-0.55737 -27.14454,-1.13785 -7.69563,-0.81222 -10.48507,-0.6396 -12.10499,0.74909 -2.73119,2.34134 -3.89501,2.28293 -3.89501,-0.19548 0,-2.59888 -3.85388,-2.59888 -4.85117,0 -1.17697,3.06714 -4.83348,2.5407 -3.85111,-0.55445 1.26707,-3.99221 -1.60125,-4.57261 -4.05916,-0.82137 -2.84507,4.34213 -5.10951,4.36604 -4.02437,0.0425 1.08002,-4.30314 -0.95367,-4.28032 -3.78609,0.0425 -2.53407,3.86748 -5.54419,3.2448 -3.4281,-0.70916 0.91704,-1.7135 0.89015,-2.78318 -0.0851,-3.38592 -0.78411,-0.48461 -1.56733,-0.67102 -1.74049,-0.41426 -0.17316,0.25677 -1.3891,2.18099 -2.70209,4.27605 -2.79708,4.46315 -6.06215,3.02994 -3.59584,-1.5784 1.90036,-3.55086 1.83806,-4.2308 -0.38764,-4.2308 -1.01447,0 -2.1583,1.2 -2.54184,2.66667 -1.16877,4.46938 -3.94583,3.21429 -2.94729,-1.33203 0.71153,-3.23957 0.49332,-3.85098 -1.14943,-3.2206 -1.11523,0.42795 -2.21277,2.03037 -2.43899,3.56093 -0.22621,1.53055 -1.25228,3.06015 -2.28015,3.3991 -1.89219,0.62397 -1.73159,-1.23915 0.59672,-6.92267 0.75785,-1.84996 0.53336,-2.3558 -0.84873,-1.91239 -1.03352,0.33158 -2.45321,2.51345 -3.15486,4.8486 -0.70165,2.33515 -2.0665,4.24572 -3.033,4.24572 -1.90594,0 -4.57735,5.78771 -4.2522,9.21254 0.11074,1.16644 0.13225,6.79945 0.0478,12.5178 -0.14024,9.49672 -0.46665,10.68718 -3.76959,13.74824 -2.49558,2.31283 -4.45803,3.08604 -6.33333,2.49535 -7.70597,-2.42721 -8.648,-2.32975 -9.92415,1.02678 -1.35392,3.56106 -4.38244,5.32902 -7.24618,4.2301 -0.98251,-0.37702 -2.55598,0.24181 -3.49659,1.37518 -0.94062,1.13337 -2.98675,2.07976 -4.54696,2.10308 -1.5602,0.0233 -4.00141,0.92333 -5.42491,2 -1.42349,1.07668 -3.39779,1.9576 -4.38732,1.9576 -0.98954,0 -3.50289,1.25963 -5.58523,2.79917 -3.04709,2.25281 -4.32069,2.51306 -6.52502,1.33333 C 118.03703,320.90258 116,320.93756 116,322.8951 c 0,0.85892 -0.91547,2.57325 -2.03436,3.80962 -1.83373,2.02624 -1.73511,2.82558 1,8.10499 3.59138,6.93222 9.36028,13.19037 12.15919,13.19037 1.14243,0 2.37945,-1.74302 2.89147,-4.07422 0.6255,-2.8479 1.56038,-3.93617 3.10594,-3.61558 1.37134,0.28445 2.03185,1.45202 1.73915,3.07422 -0.25956,1.43857 -0.76926,7.86558 -1.13266,14.28225 -0.57084,10.07942 -0.37058,11.66667 1.47194,11.66667 2.55321,0 2.74478,1.5212 0.47714,3.78885 -1.31847,1.31847 -1.28942,1.88178 0.14268,2.76687 1.12718,0.69663 1.46265,2.16858 0.89901,3.94448 -0.61851,1.94873 -0.32826,2.83313 0.92979,2.83313 1.30586,0 1.75062,1.62081 1.55496,5.66667 -0.15071,3.11666 -0.39873,5.96666 -0.55114,6.33333 -0.15241,0.36667 -0.36171,8.76667 -0.46511,18.66666 -0.1034,9.9 -0.78315,18.9 -1.51054,20 -2.57077,3.88763 -4.63756,11.40226 -4.65739,16.93375 -0.0121,3.37619 -0.7592,6.02388 -1.88114,6.66667 -2.76269,1.58281 -7.8681,12.11155 -6.98669,14.40846 1.40627,3.6647 4.40345,2.04408 6.18109,-3.34221 2.30273,-6.97734 4.50225,-6.91877 3.3184,0.0884 l -0.91599,5.4217 5.13213,-0.4217 5.13213,-0.42169 0.39162,-8.88485 c 0.33515,-7.60331 0.84057,-9.179 3.50406,-10.92419 4.19273,-2.74718 5.33084,-9.60222 2.7899,-16.80402 -2.61906,-7.4232 -2.55899,-16.20692 0.17854,-26.10681 1.20861,-4.37074 2.36227,-12.05046 2.56369,-17.06604 0.20142,-5.01558 0.70164,-9.45465 1.11159,-9.86461 0.40996,-0.40995 0.37509,-2.22069 -0.0775,-4.02387 -0.51537,-2.05339 -0.16465,-3.68529 0.93854,-4.3671 1.45226,-0.89755 1.43951,-1.47645 -0.0727,-3.29849 -1.40199,-1.68929 -1.48025,-2.7764 -0.33224,-4.61465 0.82599,-1.32262 1.18762,-3.60619 0.80362,-5.07459 -0.384,-1.4684 -0.0437,-3.07431 0.75621,-3.56868 0.80374,-0.49674 1.09068,-2.34797 0.6414,-4.13806 -0.57457,-2.28926 -0.17745,-3.48307 1.35413,-4.07079 1.77751,-0.6821 2.01162,-2.06265 1.30217,-7.67909 -0.47573,-3.76612 -1.70243,-7.81146 -2.726,-8.98965 -1.59624,-1.83735 -1.5808,-2.37474 0.10854,-3.77677 3.06708,-2.54545 6.74405,-1.15397 6.90893,2.61457 0.0795,1.8174 0.31034,3.90436 0.51295,4.63769 0.36646,1.32644 0.61533,4.12185 1.09243,12.27066 0.21766,3.71744 0.8923,4.448 5.20801,5.63962 3.40968,0.94146 6.57131,0.93453 10.12429,-0.0222 4.43817,-1.19507 5.42472,-1.05032 6.99963,1.02705 1.71501,2.26215 1.83604,2.26763 1.87571,0.0849 0.0515,-2.83439 4.04241,-3.16348 4.04241,-0.33333 0,1.1 0.66419,2 1.47598,2 0.81179,0 1.15313,-0.84134 0.75853,-1.86965 -1.14369,-2.98042 0.6652,-3.66608 3.32395,-1.25995 2.2707,2.05496 2.44153,2.05516 2.44153,0.003 0,-2.8884 2.14552,-2.82063 4.01114,0.12669 1.05769,1.67094 1.6758,1.86019 2.17736,0.66666 0.38522,-0.91666 2.35039,-1.66666 4.36706,-1.66666 2.01667,0 4.11626,-0.4496 4.66577,-0.9991 0.94318,-0.94319 6.79864,-2.61744 20.95022,-5.99032 l 6.17155,-1.47092 0.59623,-14.47094 c 0.35095,-8.51799 1.24025,-15.11497 2.16178,-16.0365 0.86106,-0.86106 1.56556,-3.26439 1.56556,-5.34074 0,-4.01613 3.21013,-6.34802 5.53642,-4.02173 0.92068,0.92068 0.69454,2.63857 -0.70311,5.34133 -1.13316,2.19129 -1.79448,4.24997 -1.4696,4.57485 0.32488,0.32488 0.0284,2.55112 -0.65875,4.9472 -0.74908,2.61189 -0.77804,6.84812 -0.0723,10.57835 0.71037,3.75486 0.68615,6.72409 -0.0611,7.48852 -0.68101,0.69666 -1.2382,2.12013 -1.2382,3.16326 0,1.54804 0.37347,1.58664 2.03223,0.21 3.10496,-2.57689 3.94282,-0.48457 1.37518,3.43414 -2.56109,3.90872 -1.48491,6.57095 1.18193,2.92383 1.74952,-2.3926 4.744,-3.18119 4.744,-1.24932 0,0.59506 -1.2,2.36997 -2.66667,3.94425 -2.53402,2.71996 -3.64031,6.97384 -1.81366,6.97384 0.46916,0 1.6201,-1.04906 2.55766,-2.33124 2.26654,-3.09969 4.27427,-0.9388 2.20553,2.37378 -2.18317,3.49581 -2.03313,5.29079 0.44225,5.29079 1.13215,0 1.93752,0.75 1.78971,1.66667 -0.42901,2.66059 1.61601,6.56044 6.81699,13 10.00472,12.38726 10.34902,18.20469 2.0821,35.17906 -3.25568,6.68485 -7.90568,15.47314 -10.33333,19.52954 -2.42766,4.0564 -6.42304,10.80967 -8.87863,15.00727 -2.45559,4.1976 -5.24346,8.07873 -6.19526,8.62473 -3.21502,1.8443 -12.67336,14.25924 -12.67336,16.63495 0,3.80267 3.77893,2.72896 4.24477,-1.20606 0.23204,-1.96012 1.23519,-3.83121 2.22921,-4.158 1.38036,-0.45379 1.59326,0.38041 0.9012,3.53131 -0.49836,2.26901 -0.52623,4.7401 -0.0619,5.49133 1.16185,1.87991 7.79871,1.72059 9.75344,-0.23414 z m 56.93091,-127.73724 c -1.35532,-2.19296 0.825,-13.49967 2.49581,-12.94274 0.82863,0.27622 1.44661,1.20221 1.37328,2.05776 -0.0733,0.85556 -0.22334,3.95556 -0.33334,6.88889 -0.19088,5.09007 -1.76212,6.86588 -3.53575,3.99609 z m 7.78425,-10.15048 c 0.47052,-2.84842 0.86209,-6.26435 0.87016,-7.59096 0.008,-1.35359 0.63337,-2.02965 1.42459,-1.54065 1.98298,1.22555 0.79588,12.99518 -1.38401,13.72181 -1.3558,0.45194 -1.56743,-0.61471 -0.91074,-4.5902 z m -104.04131,0.15619 c -2.1904,-1.53421 -2.99349,-1.61161 -3.45858,-0.33333 -0.72673,1.99736 -4.65511,0.0596 -6.81234,-3.36029 -1.81112,-2.87122 -0.0883,-4.48148 2.49818,-2.33492 1.67872,1.39322 2.03222,1.3103 2.03222,-0.47666 0,-2.9276 1.23297,-2.7222 5.02258,0.83674 l 3.19446,3 -0.95576,-3.81022 c -0.88138,-3.51371 -0.7464,-3.69817 1.73462,-2.37038 1.4797,0.79192 3.04213,2.35652 3.47206,3.47689 0.42992,1.12037 1.70051,2.03704 2.82353,2.03704 1.12301,0 2.04184,0.9 2.04184,2 0,2.26423 -2.0879,2.68181 -3.33333,0.66667 -1.24542,-2.01514 -3.33333,-1.59756 -3.33333,0.66666 0,2.52845 -1.31816,2.52893 -4.92615,0.002 z m -25.10515,-2.05245 c -1.49146,-2.41322 0.85447,-3.94935 6.0313,-3.94935 4.68014,0 7.95431,1.82347 6.28018,3.4976 -1.31936,1.31936 -11.54341,1.69452 -12.31148,0.45175 z m 36.93038,-3.03528 c -3.40533,-3.62482 -3.64418,-4.91407 -0.91038,-4.91407 1.09379,0 2.73811,1.2 3.65406,2.66667 2.14921,3.44142 4.20441,3.44225 3.30459,0.001 -1.05166,-4.02155 0.96435,-4.31654 4.18508,-0.61238 4.22229,4.85606 3.36143,8.42287 -1.03243,4.27772 -1.41334,-1.33334 -1.88889,-1.33334 -2.37778,0 -0.93552,2.55141 -3.61684,1.99367 -6.82314,-1.41927 z m 98.99156,-2.53068 c 1.01188,-6.32792 1.6516,-7.42202 3.29063,-5.62783 1.89345,2.07268 0.12815,11.24444 -2.16423,11.24444 -1.63222,0 -1.8505,-1.08837 -1.1264,-5.61661 z m -84.22398,2.0055 c -2.30671,-0.84579 -2.10114,-4.38889 0.25465,-4.38889 2.42522,0 4.08548,2.55892 2.56251,3.94951 -0.63277,0.57777 -1.90049,0.77549 -2.81716,0.43938 z m 91.22222,-3.94444 c -0.48888,-0.48889 -0.88888,-3.23889 -0.88888,-6.11111 0,-7.15523 3.20063,-5.92659 3.74333,1.43696 0.37867,5.13805 -0.67127,6.85732 -2.85445,4.67415 z m 5.82469,-9.69012 c -1.93782,-3.62086 -1.71648,-6.75433 0.47711,-6.75433 2.03868,0 3.47598,2.80172 3.47598,6.77572 0,3.29968 -2.18202,3.28787 -3.95309,-0.0214 z M 90.666664,432.03991 c 0,-0.71138 -1.8,-2.62422 -4,-4.25075 -4.036406,-2.98424 -5.337355,-6.45584 -2.419268,-6.45584 0.869403,0 2.924986,1.26287 4.567963,2.80636 3.566303,3.35037 5.336938,2.57086 6.533325,-2.87626 1.190807,-5.42171 -0.809573,-7.44738 -8.174118,-8.27747 -8.363476,-0.94269 -10.878496,-3.59739 -8.816489,-9.30617 1.495819,-4.14126 1.045794,-9.46556 -1.043558,-12.34645 -1.78643,-2.46321 -4.152675,-11.18857 -4.778681,-17.62106 -0.341437,-3.50842 -1.218754,-8.60646 -1.949592,-11.32899 -1.790064,-6.66836 -0.405414,-11.54388 3.561209,-12.53944 1.752232,-0.43978 3.185876,-1.23317 3.185876,-1.76308 0,-0.52992 1.432708,-1.73025 3.183794,-2.6674 2.780018,-1.48782 4.090516,-1.2494 10.333334,1.88 3.932246,1.97116 8.049539,4.37811 9.149538,5.34879 3.101613,2.73697 14.852783,5.74243 19.666663,5.02991 5.35221,-0.79221 5.71576,-3.96911 0.66667,-5.82577 -4.81931,-1.77217 -11.93721,-10.75691 -13.69581,-17.28787 -1.79759,-6.67572 -4.58118,-7.40246 -20.744691,-5.41609 -6.822039,0.83838 -14.568556,1.52433 -17.214482,1.52433 -7.302532,0 -12.678348,3.29357 -12.678348,7.76757 0,2.0345 0.671739,4.37084 1.492754,5.19185 0.821015,0.82102 1.963321,3.79102 2.538458,6.6 3.348064,16.35204 3.970137,21.16051 4.478202,34.61539 0.308233,8.16282 1.21971,16.07337 2.025504,17.57902 0.805795,1.50564 1.465081,3.93412 1.465081,5.39663 0,1.4625 2.7,5.47707 6,8.92125 3.3,3.44418 6,6.74087 6,7.32599 0,1.4793 7.929954,9.26896 9.435897,9.26896 0.676923,0 1.230769,-0.58203 1.230769,-1.29341 z M 61.333332,347.63 c 0,-0.93683 0.956861,-3.06943 2.126358,-4.73912 1.309037,-1.86892 1.811774,-4.28921 1.30793,-6.29668 -0.705905,-2.81255 -0.356648,-3.26087 2.540309,-3.26087 4.026221,0 4.275413,2.17722 1.177592,10.28875 -1.490789,3.90358 -2.967838,5.71125 -4.666666,5.71125 -1.367038,0 -2.485523,-0.7665 -2.485523,-1.70333 z m 48.991888,-27.29667 c 2.40999,-6.71779 4.34144,-16.31203 4.34144,-21.56557 0,-2.85668 1.82264,-10.77146 4.05032,-17.58839 6.09755,-18.65924 15.60471,-36.39652 31.92407,-59.55993 4.59995,-6.5291 4.72875,-6.95278 2.11374,-6.95278 -3.43431,0 -22.80156,29.02411 -31.02719,46.4979 -5.20736,11.06205 -15.12883,41.12555 -17.32096,52.48503 -1.65613,8.58195 3.24999,14.12234 5.91858,6.68374 z m 16.56484,-15.68124 c 1.70758,-25.5518 6.90405,-42.43737 18.83035,-61.18793 0.88711,-1.39471 4.16171,-6.49471 7.2769,-11.33333 5.23364,-8.12907 7.09862,-13.49746 4.66935,-13.44087 -0.55,0.0128 -3.30221,3.76281 -6.11602,8.33333 -2.81381,4.57052 -7.94065,12.51004 -11.39297,17.64337 -3.45233,5.13333 -6.9519,11.43333 -7.77683,14 -0.82492,2.56667 -3.02456,8.29938 -4.88808,12.73937 -5.36034,12.77146 -9.67361,43.302 -6.55778,46.41783 0.51424,0.51424 1.86424,0.75769 3,0.54099 1.62658,-0.31035 2.25399,-3.22176 2.95508,-13.71276 z m -27.884296,5.68124 c 0.685205,-4.62665 0.02714,-7.66667 -1.659576,-7.66667 -1.225287,0 -2.635644,4.76952 -2.661317,9 -0.02853,4.70115 3.592679,3.58372 4.320893,-1.33333 z M 136.9153,293.98985 c 2.51862,-24.16975 7.6002,-37.93282 20.15628,-54.59173 6.04607,-8.02169 7.60219,-12.06479 4.64351,-12.06479 -2.23609,0 -12.20237,14.07849 -17.93369,25.33333 -8.12645,15.95829 -10.97338,27.21972 -12.58229,49.77113 -0.53412,7.48646 -0.33975,8.38729 1.72398,7.98985 1.94232,-0.37405 2.60081,-3.08536 3.99221,-16.43779 z m 8.47004,14.34348 c 0.0286,-0.55 0.24241,-6.4 0.47511,-13 0.64545,-18.3068 6.88604,-35.60655 18.29601,-50.71894 C 168.85354,238.39316 170.94574,232 168.2846,232 c -2.94813,0 -18.24452,24.54918 -22.0931,35.45722 -3.19119,9.0448 -6.43626,34.39208 -4.91521,38.39275 1.21147,3.1864 3.98529,4.86279 4.10905,2.48336 z m 8.99362,-9.10307 c 0.75752,-10.45509 5.85394,-31.97431 9.12323,-38.52211 1.84214,-3.68949 5.10775,-8.53672 7.25691,-10.77163 4.16117,-4.32721 5.15308,-8.60319 1.99569,-8.60319 -2.61557,0 -8.97171,9.19511 -15.20756,22 -6.27218,12.87949 -10.81258,34.47766 -8.25325,39.25981 2.26263,4.22776 4.64936,2.64933 5.08498,-3.36288 z m -48.6473,-2.89693 c 1.64802,-13.55904 13.17452,-41.82932 23.02004,-56.4597 2.5199,-3.74455 4.58163,-7.21426 4.58163,-7.71047 0,-0.49621 1.65,-2.72483 3.66667,-4.9525 7.15514,-7.90376 16.33333,-19.53412 16.33333,-20.69717 0,-2.78112 -3.99741,-0.83417 -6.47396,3.15317 -1.48029,2.38334 -5.12923,6.7051 -8.10874,9.60393 -2.97952,2.89883 -5.4173,5.77457 -5.4173,6.39054 0,0.61597 -2.34097,4.24421 -5.20215,8.06274 -8.53148,11.3861 -19.73162,32.60607 -21.61008,40.94279 -0.57833,2.56667 -2.03215,9.05369 -3.23072,14.4156 -1.19857,5.36191 -1.84806,10.61191 -1.44331,11.66666 1.43778,3.74681 3.12571,1.82816 3.88459,-4.41559 z m 64.97659,1.33333 c 0.16522,-9.26934 4.15525,-34.43514 5.87608,-37.06147 2.23701,-3.41411 2.85604,-11.27186 0.88799,-11.27186 -2.35333,0 -9.41631,12.90539 -11.3349,20.71102 -2.97477,12.10257 -3.93555,23.92915 -2.20646,27.15999 1.83502,3.42875 6.71848,3.76189 6.77729,0.46232 z m -70.65933,-11.00217 c 3.59812,-18.3986 6.15521,-25.10388 15.76187,-41.33116 6.63578,-11.20897 15.07169,-22.56981 24.5144,-33.01412 3.48781,-3.85776 6.34147,-7.55869 6.34147,-8.22428 0,-0.66559 0.3642,-2.15924 0.80932,-3.31922 1.34167,-3.49632 -1.40815,-2.37056 -3.80468,1.55762 -1.23033,2.01667 -6.34556,7.90238 -11.36717,13.07937 -18.22558,18.78955 -31.89544,43.91251 -36.956841,67.92063 -2.641972,12.53187 -2.593405,15.64045 0.235848,15.09559 1.676711,-0.32291 2.814284,-3.31967 4.465783,-11.76443 z M 97.285289,261.66666 C 103.22383,247.02402 111.00844,233.93915 120.28933,223 c 5.13288,-6.05 9.84816,-11 10.4784,-11 2.13033,0 12.12347,-14.51604 11.65779,-16.93412 -0.60568,-3.14505 -4.2543,-3.0987 -4.86295,0.0618 -0.66968,3.4774 -3.10601,6.27282 -18.48716,21.21197 -13.7591,13.36372 -15.01843,15.24163 -24.976372,37.24447 -3.734659,8.25203 -4.533318,15.74924 -1.677725,15.74924 0.965056,0 3.153846,-3.45 4.863976,-7.66667 z m 88.048041,-3.15738 c 0,-0.73333 -0.6,-0.96251 -1.33333,-0.50929 -0.73334,0.45323 -1.33334,1.42405 -1.33334,2.15738 0,0.73334 0.6,0.96252 1.33334,0.50929 0.73333,-0.45322 1.33333,-1.42404 1.33333,-2.15738 z M 93.411953,246.99999 c 3.57765,-11.05058 8.280807,-17.75089 22.389287,-31.8967 13.41146,-13.44694 19.7498,-22.45016 18.48223,-26.25287 -0.24553,-0.73658 -2.20975,0.97736 -4.36494,3.80877 -6.60957,8.68339 -16.76497,19.21816 -19.30246,20.02353 -2.67692,0.84962 -17.282739,18.31674 -17.282739,20.66844 0,0.82139 -1.5,3.46003 -3.333333,5.86365 -4.152208,5.44383 -4.594388,12.78518 -0.77007,12.78518 1.785326,0 3.054551,-1.51747 4.182025,-5 z m -4.736749,-25.63976 c -0.460805,-1.45186 -0.243429,-3.70186 0.483058,-5 1.172492,-2.09507 1.511731,-1.91085 3.019622,1.63977 l 1.698736,4 0.4795,-4.33334 c 0.512384,-4.63051 1.487561,-5.28965 4.043878,-2.73333 1.244444,1.24444 1.599999,0.85007 1.599999,-1.77469 0,-2.33447 1.130233,-3.95722 3.666663,-5.2645 2.01667,-1.03939 4.14648,-2.64077 4.73292,-3.55864 0.58644,-0.91786 1.87225,-1.66884 2.85735,-1.66884 0.9851,0 2.13646,-0.9 2.55857,-2 0.42211,-1.1 1.8363,-2.01885 3.14265,-2.0419 1.30635,-0.023 3.50324,-1.58939 4.88197,-3.48077 2.07259,-2.84321 2.18806,-3.64075 0.66667,-4.60435 -1.01207,-0.64101 -3.07545,-1.17466 -4.58529,-1.18589 -1.50983,-0.0112 -3.90983,-0.90902 -5.33333,-1.99508 -4.04527,-3.08637 -0.0879,-4.90399 5.54915,-2.5487 6.80872,2.84487 11.45609,2.25963 17.53056,-2.20758 4.78929,-3.52209 8.21825,-8.52828 6.78719,-9.90913 -0.49438,-0.47703 -16.84906,-1.08071 -22.78841,-0.84115 C 117.65,171.93345 116,172.6 116,173.33333 c 0,0.76943 4.19599,1.33333 9.92131,1.33333 5.45672,0 10.24426,0.52256 10.63899,1.16123 2.14722,3.47429 -8.5767,9.19297 -14.00703,7.46945 -3.19695,-1.01467 -3.36958,-3.548 -0.21994,-3.22762 4.84954,0.49331 6.18123,-0.34431 2.35997,-1.48437 -2.18536,-0.652 -6.08536,-0.85253 -8.66667,-0.44564 -4.00824,0.63183 -4.88792,0.28638 -6.02663,-2.36662 -1.12248,-2.61518 -2.46844,-3.17113 -8.51119,-3.51561 -8.260813,-0.47091 -25.21869,4.05056 -27.815908,7.41655 -0.913236,1.18356 -7.513236,4.70486 -14.666666,7.82513 -10.549869,4.60176 -13.083706,6.25499 -13.416425,8.75369 -0.225603,1.69426 -2.013282,4.4128 -3.972621,6.04119 -5.268492,4.37861 -2.43034,6.40788 8.288807,5.9265 5.264274,-0.23642 8.857355,0.19054 9.4323,1.12082 1.493032,2.41578 -0.3974,3.25053 -6.736563,2.97464 -6.071676,-0.26426 -6.785759,0.27576 -4.706892,3.5595 1.006887,1.59046 2.432741,1.61122 9.381681,0.13655 10.555782,-2.24009 22.234021,-0.0867 24.057702,4.43601 0.922068,2.28674 1.180942,2.40123 1.247925,0.55194 0.11833,-3.26693 4.084514,-2.94326 4.084514,0.33333 0,1.46667 0.640433,2.66667 1.423184,2.66667 0.811582,0 1.063134,-1.13442 0.585356,-2.63977 z m -4.614393,-26.33412 c -3.647977,-1.43601 -6.970081,-5.44837 -6.506056,-7.85785 0.736368,-3.82365 8.843551,-8.60996 12.949712,-7.64524 1.922542,0.4517 4.065531,1.3438 4.762197,1.98245 0.696667,0.63866 2.346667,1.16119 3.666667,1.16119 3.917879,0 2.755449,3.36858 -2.937174,8.51152 -5.134161,4.63841 -7.769183,5.48793 -11.935346,3.84793 z m 10.620601,-5.72034 c 1.805076,-3.37281 0.969529,-4.76965 -3.528342,-5.89854 -4.077062,-1.02328 -7.604074,1.32508 -4.042695,2.69171 1.222626,0.46916 2.222956,1.98883 2.222956,3.37704 0,3.3437 3.52758,3.23143 5.348081,-0.17021 z m 34.859928,-24.18045 c 1.69012,-1.69012 4.43836,-2.46589 8.79199,-2.48181 7.60252,-0.0278 24.29114,-3.40132 26.18249,-5.29267 C 165.25878,156.60788 167.24666,156 168.93333,156 170.82896,156 172,155.20197 172,153.91015 c 0,-1.45382 0.77886,-1.84265 2.55913,-1.27762 1.84787,0.5865 2.80778,0.0288 3.45379,-2.00658 0.554,-1.74551 1.62953,-2.53681 2.82467,-2.07819 1.06151,0.40734 2.24605,-0.083 2.63232,-1.08956 0.40326,-1.05089 1.80111,-1.54284 3.28286,-1.15535 1.76597,0.46181 2.58056,-0.006 2.58056,-1.48068 0,-1.25552 1.09647,-2.15551 2.62611,-2.15551 1.44436,0 4.76261,-1.2 7.37389,-2.66666 2.61128,-1.46667 5.62953,-2.66667 6.70722,-2.66667 1.07769,0 1.95944,-0.6 1.95944,-1.33333 0,-0.73334 1.2,-1.33334 2.66667,-1.33334 1.48148,0 2.66667,-0.88888 2.66667,-2 0,-1.1 0.94286,-2 2.09524,-2 1.15238,0 2.93155,-0.75 3.95372,-1.66666 3.78804,-3.39706 5.34078,-4.48934 7.6177,-5.35872 1.28334,-0.49001 2.33334,-1.71676 2.33334,-2.72612 0,-1.00936 1.2,-2.92118 2.66666,-4.2485 2.39812,-2.17026 2.66667,-2.19107 2.66667,-0.20665 0,1.21366 0.6,2.20665 1.33333,2.20665 0.73334,0 1.33334,-1.8 1.33334,-4 0,-2.2 0.6,-4 1.33333,-4 0.73333,0 1.33333,0.63541 1.33333,1.41203 0,0.77661 0.6,1.0412 1.33334,0.58797 0.73333,-0.45322 1.33333,-2.32906 1.33333,-4.16854 0,-2.73772 0.48379,-3.19094 2.66667,-2.49812 2.06648,0.65587 2.66666,0.2396 2.66666,-1.84955 0,-2.87971 5.96596,-9.740052 7.30541,-8.400598 0.4402,0.440197 1.14654,-0.523439 1.56965,-2.141414 0.42311,-1.617975 1.51866,-2.941773 2.43454,-2.941773 2.11017,0 20.6904,-17.805244 20.6904,-19.827389 0,-2.202251 -0.69682,-1.905989 -5.08211,2.160723 -2.17465,2.016666 -4.7708,4.294813 -5.76923,5.062547 -0.99843,0.767735 -5.41532,4.217358 -9.81532,7.665829 -4.4,3.44847 -8.6,6.283665 -9.33334,6.300432 -0.73333,0.01677 -2.83333,1.203804 -4.66666,2.637858 -1.83334,1.434054 -4.23334,2.601857 -5.33334,2.595119 -3.62138,-0.02219 -6.87113,-6.471531 -7.89493,-15.66801 l -0.9938,-8.927109 -2.38098,5.333333 c -2.97018,6.653127 -3.34358,19.462792 -0.79191,27.167212 l 1.93215,5.83388 -4.60193,3.9381 c -2.53106,2.16595 -5.86928,5.07413 -7.41826,6.46262 -1.54898,1.38849 -4.24898,3.15315 -6,3.92146 -1.75102,0.76832 -5.88367,3.13773 -9.18367,5.26536 -6.867,4.42741 -10.0335,4.98455 -11.19068,1.96898 -1.72176,-4.48682 -0.66883,-14.50594 2.52402,-24.01726 1.83333,-5.46141 3.33333,-10.217197 3.33333,-10.568424 0,-1.771181 -4.19521,-0.32138 -4.90397,1.694739 -0.45115,1.283335 -2.18906,3.833335 -3.86202,5.666665 -3.71913,4.07565 -8.96608,17.03774 -7.95904,19.66205 0.40353,1.05156 0.33533,2.55647 -0.15154,3.34425 -0.48688,0.78778 -1.02127,3.16175 -1.18755,5.27549 -0.67066,8.52539 -11.5306,14.35636 -35.44908,19.03348 -19.24965,3.76417 -28.2241,3.13882 -41.15347,-2.86761 -4.033329,-1.87372 -9.326626,-4.32987 -11.762879,-5.45812 -2.436252,-1.12825 -6.936252,-4.96216 -10,-8.5198 -5.590678,-6.49192 -7.57045,-7.78408 -7.57045,-4.94108 0,2.1472 9.219734,15.80467 10.669243,15.80467 0.656351,0 2.676205,1.37425 4.488564,3.05389 1.81236,1.67964 6.308407,3.82615 9.991216,4.77003 3.682806,0.94387 7.404346,2.56962 8.270086,3.61278 0.86574,1.04315 2.40061,1.89664 3.41082,1.89664 1.20287,0 1.83674,1.57725 1.83674,4.57033 v 4.57033 l 7.54134,-0.77834 c 4.71873,-0.48702 8.46157,-1.69857 10,-3.237 z m -27.42348,-2.11857 c -1.45653,-1.45653 -2.455299,0.85981 -1.40957,3.26908 0.99157,2.28448 1.06345,2.2824 1.61592,-0.0469 0.318,-1.34073 0.22514,-2.79073 -0.20635,-3.22222 z m -10.117862,0.34331 c 0,-2.4166 -1.440091,-4.2257 -5.306838,-6.66667 -2.91876,-1.84253 -6.547582,-3.35006 -8.064048,-3.35006 -1.516466,0 -6.04004,-2.1 -10.052386,-4.66667 -10.706793,-6.84905 -13.16461,-6.15146 -5.648505,1.60319 2.343855,2.41825 5.362686,4.39681 6.708513,4.39681 1.345826,0 2.805552,0.93449 3.243834,2.07663 0.438282,1.14215 1.619451,1.76098 2.62482,1.37518 1.094233,-0.4199 1.870195,0.21832 1.933207,1.59004 0.06389,1.39093 0.369563,1.63648 0.777777,0.62482 1.079545,-2.67539 4.450293,-1.91797 4.450293,1 0,1.46667 0.6,2.66667 1.333333,2.66667 0.733333,0 1.333333,-0.6 1.333333,-1.33334 0,-2.4448 2.906062,-1.37255 3.613668,1.33334 0.98331,3.76018 3.052999,3.31957 3.052999,-0.64994 z M 97.333331,164 c 0,-1.46667 -0.6,-2.66667 -1.333333,-2.66667 -0.733334,0 -1.333334,1.2 -1.333334,2.66667 0,1.46666 0.6,2.66666 1.333334,2.66666 0.733333,0 1.333333,-1.2 1.333333,-2.66666 z m 28.780879,-17.40392 c 2.43593,-1.50549 6.46305,-5.55549 8.94914,-9 4.57549,-6.33938 18.26998,-33.49279 18.26998,-36.22567 0,-2.805623 9.6379,-19.332669 12.40377,-21.269962 1.52221,-1.066195 3.85408,-3.024967 5.18194,-4.352827 1.32786,-1.327859 3.01429,-2.414289 3.74762,-2.414289 0.73334,0 1.33334,-1.057591 1.33334,-2.350202 0,-1.292611 1.44487,-3.435255 3.21082,-4.76143 1.76595,-1.326176 3.93875,-4.168585 4.82843,-6.316465 0.88968,-2.14788 2.10086,-3.905236 2.69152,-3.905236 1.10775,0 5.26923,-7.532963 5.26923,-9.538184 0,-2.66614 -2.87054,-0.755857 -5.81763,3.871517 -1.75143,2.75 -6.93315,9.072958 -11.51493,14.051018 -15.84672,17.217293 -23.19885,17.25239 -24.96715,0.119188 -1.38737,-13.44226 -4.36696,-6.334391 -4.36696,10.417449 0,5.089877 0.52962,10.264877 1.17693,11.5 2.81101,5.363654 -16.01627,48.516463 -22.78249,52.218303 -3.29006,1.8 -3.91429,1.74167 -7.13362,-0.66667 -4.13001,-3.08959 -9.20392,-11.64293 -10.55455,-17.7923 -0.52626,-2.39604 -1.63766,-4.08696 -2.49439,-3.79501 -1.89463,0.64564 -2.20378,14.56842 -0.35186,15.8464 0.81003,0.55899 0.64292,1.69233 -0.44235,3 -1.60538,1.93436 -1.04404,2.69323 1.65376,2.23571 2.04412,-0.34667 4.91673,3.67866 4.11542,5.76684 -0.52695,1.37322 -0.0646,2.09907 1.33717,2.09907 1.17845,0 2.14265,0.55601 2.14265,1.23557 0,1.29061 2.903,2.34638 7.17595,2.60976 1.38011,0.0851 4.50233,-1.07709 6.93826,-2.58258 z"
       id="path1" />
  </g>
</svg>
